<?xml version="1.0" encoding="UTF-8" standalone="no"?>
<!-- Created with Inkscape (http://www.inkscape.org/) -->

<svg
   xmlns:dc="http://purl.org/dc/elements/1.1/"
   xmlns:cc="http://creativecommons.org/ns#"
   xmlns:rdf="http://www.w3.org/1999/02/22-rdf-syntax-ns#"
   xmlns:svg="http://www.w3.org/2000/svg"
   xmlns="http://www.w3.org/2000/svg"
   xmlns:sodipodi="http://sodipodi.sourceforge.net/DTD/sodipodi-0.dtd"
   xmlns:inkscape="http://www.inkscape.org/namespaces/inkscape"
   width="210mm"
   height="297mm"
   viewBox="0 0 210 297"
   version="1.1"
   id="svg8"
   inkscape:version="0.92.4 (5da689c313, 2019-01-14)"
   sodipodi:docname="emojis.svg">
  <defs
     id="defs2" />
  <sodipodi:namedview
     id="base"
     pagecolor="#ffffff"
     bordercolor="#666666"
     borderopacity="1.0"
     inkscape:pageopacity="0.0"
     inkscape:pageshadow="2"
     inkscape:zoom="2"
     inkscape:cx="163.92161"
     inkscape:cy="645.31811"
     inkscape:document-units="mm"
     inkscape:current-layer="layer1"
     showgrid="false"
     inkscape:window-width="1920"
     inkscape:window-height="955"
     inkscape:window-x="1680"
     inkscape:window-y="1"
     inkscape:window-maximized="1" />
  <metadata
     id="metadata5">
    <rdf:RDF>
      <cc:Work
         rdf:about="">
        <dc:format>image/svg+xml</dc:format>
        <dc:type
           rdf:resource="http://purl.org/dc/dcmitype/StillImage" />
        <dc:title />
      </cc:Work>
    </rdf:RDF>
  </metadata>
  <g
     inkscape:label="Layer 1"
     inkscape:groupmode="layer"
     id="layer1">
    <g
       id="g3794"
       transform="translate(-8.8388318,9.085197)"
       inkscape:export-xdpi="240.24001"
       inkscape:export-ydpi="240.24001">
      <path
         style="fill:#b5b5b5;stroke-width:0.26458332;fill-opacity:1"
         d="m 84.945922,95.678474 c -4.805619,-3.956732 -4.539921,-3.770196 -7.72382,-9.307529 -1.191329,-2.071921 0.0066,-9.522593 3.942148,-13.458131 3.082194,-3.082195 6.363869,-5.004044 10.776462,-5.004044 4.412593,0 7.599774,1.071402 10.681968,4.153597 3.93554,3.935538 4.86481,8.196787 3.65866,13.930602 -1.17848,5.602322 -5.0172,10.102504 -10.619524,11.280987 -2.251272,0.47357 -6.500979,-0.18337 -8.637025,-0.650542 z"
         id="path3798"
         inkscape:connector-curvature="0"
         sodipodi:nodetypes="csssccscc" />
      <path
         style="fill:#1f1a0f;stroke-width:0.26458332"
         d="M 88.386424,98.101029 C 82.579735,96.696523 77.848903,91.924835 76.477661,86.089424 74.525833,77.78329 79.991384,69.193637 88.505141,67.18705 c 8.29638,-1.955353 16.892169,3.515146 18.898359,12.02722 1.95536,8.29638 -3.51514,16.892171 -12.027217,18.898361 -2.109313,0.497139 -4.905745,0.492498 -6.989859,-0.01161 z m 7.116913,-2.098437 c 2.350469,-0.612219 4.047336,-1.639081 6.099193,-3.690936 2.91363,-2.913637 4.09652,-5.703512 4.09652,-9.661815 0,-3.958303 -1.18289,-6.748178 -4.09652,-9.661815 -2.91364,-2.913638 -5.703515,-4.096518 -9.661818,-4.096518 -3.958303,0 -6.748178,1.18288 -9.661815,4.096518 -2.913638,2.913637 -4.096518,5.703512 -4.096518,9.661815 0,3.950887 1.175746,6.729643 4.096518,9.681705 1.894247,1.914541 4.16912,3.261955 6.385859,3.782369 1.643197,0.385765 5.149249,0.328692 6.838581,-0.111323 z M 85.477319,81.175734 c -0.568567,-0.568567 -0.582059,-3.614761 -0.01808,-4.082819 0.583217,-0.484027 1.757172,-0.402301 2.161364,0.150465 0.546184,0.74695 0.45708,3.376691 -0.132491,3.910245 -0.609784,0.551847 -1.471575,0.561323 -2.010789,0.02211 z m 10.870025,-0.06808 c -0.541218,-0.598039 -0.598666,-3.163871 -0.08652,-3.864273 0.404192,-0.552766 1.578147,-0.634492 2.161364,-0.150465 0.563975,0.468058 0.550483,3.514252 -0.01808,4.082819 -0.557565,0.557565 -1.519371,0.525729 -2.056761,-0.06808 z"
         id="path3796"
         inkscape:connector-curvature="0"
         sodipodi:nodetypes="cssssccscscsssssscccscccssccc" />
    </g>
    <g
       id="g875">
      <path
         sodipodi:nodetypes="csssccscc"
         inkscape:connector-curvature="0"
         id="path3961"
         d="m 35.014402,104.76367 c -4.805619,-3.95673 -4.539921,-3.7702 -7.72382,-9.307528 -1.191329,-2.071921 0.0066,-9.522593 3.942148,-13.458131 3.082194,-3.082195 6.363869,-5.004044 10.776462,-5.004044 4.412593,0 7.599774,1.071402 10.681968,4.153597 3.93554,3.935538 4.86481,8.196787 3.65866,13.930602 -1.17848,5.602324 -5.0172,10.102504 -10.619524,11.280984 -2.251272,0.47357 -6.500979,-0.18337 -8.637025,-0.65054 z"
         style="fill:#73dc7d;fill-opacity:1;stroke-width:0.26458332" />
      <path
         sodipodi:nodetypes="cssssccscscsssssssssscsssscccscccssccc"
         inkscape:connector-curvature="0"
         id="path3963"
         d="m 38.454904,107.18623 c -5.806689,-1.40451 -10.537521,-6.1762 -11.908763,-12.011609 -1.951828,-8.306134 3.513723,-16.895787 12.02748,-18.902374 8.29638,-1.955353 16.892169,3.515146 18.898359,12.02722 1.95536,8.29638 -3.51514,16.892173 -12.027217,18.898363 -2.109313,0.49714 -4.905745,0.4925 -6.989859,-0.0116 z m 7.116913,-2.09844 c 2.350469,-0.61222 4.047336,-1.63908 6.099193,-3.69094 2.91363,-2.913634 4.09652,-5.703509 4.09652,-9.661812 0,-3.958303 -1.18289,-6.748178 -4.09652,-9.661815 -2.91364,-2.913638 -5.703515,-4.096518 -9.661818,-4.096518 -3.958303,0 -6.748178,1.18288 -9.661815,4.096518 -2.913638,2.913637 -4.096518,5.703512 -4.096518,9.661815 0,3.950887 1.175746,6.729643 4.096518,9.681702 1.894247,1.91454 4.16912,3.26196 6.385859,3.78237 1.643197,0.38577 5.149249,0.32869 6.838581,-0.11132 z m -6.078853,-4.10336 c -3.468709,-0.85268 -7.728547,-5.337056 -6.488909,-6.365865 0.346833,-0.287846 2.968132,2.608774 4.450825,3.369246 1.64569,0.844073 2.070997,1.173021 4.416898,1.173021 2.36651,0 2.484192,-0.32176 4.06133,-1.176821 1.291171,-0.700019 4.184212,-3.652503 4.522102,-3.440767 1.22623,0.768417 -2.852514,5.11455 -5.405996,6.118016 -0.608606,0.23917 -1.795374,0.65789 -2.947751,0.70943 -1.054997,0.0472 -2.081169,-0.25663 -2.608499,-0.38626 z M 35.545799,90.260931 c -0.568567,-0.568567 -0.582059,-3.614761 -0.01808,-4.082819 0.583217,-0.484027 1.757172,-0.402301 2.161364,0.150465 0.546184,0.74695 0.45708,3.376691 -0.132491,3.910245 -0.609784,0.551847 -1.471575,0.561323 -2.010789,0.02211 z m 10.870025,-0.06808 c -0.541218,-0.598039 -0.598666,-3.163871 -0.08652,-3.864273 0.404192,-0.552766 1.578147,-0.634492 2.161364,-0.150465 0.563975,0.468058 0.550483,3.514252 -0.01808,4.082819 -0.557565,0.557565 -1.519371,0.525729 -2.056761,-0.06808 z"
         style="fill:#1f1a0f;stroke-width:0.26458332" />
    </g>
    <g
       id="g879"
       inkscape:export-xdpi="240.24001"
       inkscape:export-ydpi="240.24001">
      <rect
         y="122.01327"
         x="30.177782"
         height="27.648958"
         width="27.648958"
         id="rect866"
         style="fill:#73dc7d;fill-opacity:1;stroke:none;stroke-width:2;stroke-miterlimit:4;stroke-dasharray:none;stroke-opacity:1" />
      <path
         style="fill:#1f1a0f;stroke-width:0.31646863"
         d="m 41.324033,144.64915 c -4.148931,-1.01989 -9.244134,-6.38365 -7.761398,-7.61421 0.414844,-0.3443 3.550186,3.12035 5.323635,4.02995 1.968413,1.00961 2.477127,1.40306 5.283058,1.40306 2.830587,0 2.971345,-0.38485 4.857765,-1.4076 1.544371,-0.83729 5.004742,-4.36877 5.408893,-4.1155 1.466696,0.91909 -3.411893,6.11752 -6.466116,7.31777 -0.727959,0.28607 -2.147457,0.78689 -3.525821,0.84854 -1.261876,0.0565 -2.48928,-0.30695 -3.120016,-0.46201 z m -4.721218,-12.8264 c -0.680067,-0.68005 -0.696203,-4.32362 -0.02165,-4.88345 0.697591,-0.57895 2.101754,-0.48121 2.585207,0.17996 0.653299,0.89343 0.546714,4.03887 -0.158472,4.67706 -0.729359,0.66006 -1.760147,0.6714 -2.40511,0.0264 z m 13.00166,-0.0814 c -0.647354,-0.7153 -0.71607,-3.78431 -0.103463,-4.62206 0.483453,-0.66116 1.887617,-0.75892 2.585207,-0.17997 0.674566,0.55984 0.658431,4.20341 -0.02165,4.88347 -0.666911,0.6669 -1.817322,0.62882 -2.460095,-0.0814 z"
         id="path868"
         inkscape:connector-curvature="0"
         sodipodi:nodetypes="ssssscsssccccscccsscc" />
    </g>
    <g
       id="g4005"
       transform="translate(-8.0744425e-6,0.0668174)"
       inkscape:export-xdpi="240.24001"
       inkscape:export-ydpi="240.24001">
      <g
         id="g3999"
         transform="translate(32.253859,9.0183796)">
        <path
           style="fill:#ff7760;stroke-width:0.26458332;fill-opacity:1"
           d="m 84.945922,95.678474 c -4.805619,-3.956732 -4.539921,-3.770196 -7.72382,-9.307529 -1.191329,-2.071921 0.0066,-9.522593 3.942148,-13.458131 3.082194,-3.082195 6.363869,-5.004044 10.776462,-5.004044 4.412593,0 7.599774,1.071402 10.681968,4.153597 3.93554,3.935538 4.86481,8.196787 3.65866,13.930602 -1.17848,5.602322 -5.0172,10.102504 -10.619524,11.280987 -2.251272,0.47357 -6.500979,-0.18337 -8.637025,-0.650542 z"
           id="path3995"
           inkscape:connector-curvature="0"
           sodipodi:nodetypes="csssccscc" />
        <path
           style="fill:#1f1a0f;stroke-width:0.26458332"
           d="M 88.386424,98.101029 C 82.579735,96.696523 77.848903,91.924835 76.477661,86.089424 74.525833,77.78329 79.991384,69.193637 88.505141,67.18705 c 8.29638,-1.955353 16.892169,3.515146 18.898359,12.02722 1.95536,8.29638 -3.51514,16.892171 -12.027217,18.898361 -2.109313,0.497139 -4.905745,0.492498 -6.989859,-0.01161 z m 7.116913,-2.098437 c 2.350469,-0.612219 4.047336,-1.639081 6.099193,-3.690936 2.91363,-2.913637 4.09652,-5.703512 4.09652,-9.661815 0,-3.958303 -1.18289,-6.748178 -4.09652,-9.661815 -2.91364,-2.913638 -5.703515,-4.096518 -9.661818,-4.096518 -3.958303,0 -6.748178,1.18288 -9.661815,4.096518 -2.913638,2.913637 -4.096518,5.703512 -4.096518,9.661815 0,3.950887 1.175746,6.729643 4.096518,9.681705 1.894247,1.914541 4.16912,3.261955 6.385859,3.782369 1.643197,0.385765 5.149249,0.328692 6.838581,-0.111323 z M 85.477319,81.175734 c -0.568567,-0.568567 -0.582059,-3.614761 -0.01808,-4.082819 0.583217,-0.484027 1.757172,-0.402301 2.161364,0.150465 0.546184,0.74695 0.45708,3.376691 -0.132491,3.910245 -0.609784,0.551847 -1.471575,0.561323 -2.010789,0.02211 z m 10.870025,-0.06808 c -0.541218,-0.598039 -0.598666,-3.163871 -0.08652,-3.864273 0.404192,-0.552766 1.578147,-0.634492 2.161364,-0.150465 0.563975,0.468058 0.550483,3.514252 -0.01808,4.082819 -0.557565,0.557565 -1.519371,0.525729 -2.056761,-0.06808 z"
           id="path3997"
           inkscape:connector-curvature="0"
           sodipodi:nodetypes="cssssccscscsssssscccscccssccc" />
      </g>
      <path
         style="fill:#1f1a0f;stroke-width:0.26458332"
         d="m 127.29409,94.758128 c 2.55349,1.003474 5.69677,5.483232 4.47054,6.251652 -0.33788,0.21173 -2.29547,-2.874382 -3.58664,-3.574399 -1.57714,-0.855061 -1.56119,-1.310455 -3.9277,-1.310455 -2.3459,0 -2.90484,0.462584 -4.55053,1.306655 -1.4827,0.760472 -3.16854,3.523449 -3.51538,3.235609 -1.23963,-1.028807 2.08475,-5.379552 5.55346,-6.232227 0.49342,-0.121292 1.55722,-0.428361 2.53908,-0.394323 1.21368,0.04207 2.37273,0.464236 3.01717,0.717488 z"
         id="path3969"
         inkscape:connector-curvature="0"
         sodipodi:nodetypes="ssscsssss" />
    </g>
    <g
       id="g885"
       transform="translate(39.158333,-0.13229167)"
       inkscape:export-xdpi="240.24001"
       inkscape:export-ydpi="240.24001">
      <rect
         style="fill:#b5b5b5;fill-opacity:1;stroke:none;stroke-width:2;stroke-miterlimit:4;stroke-dasharray:none;stroke-opacity:1"
         id="rect881"
         width="27.648958"
         height="27.648958"
         x="30.177782"
         y="122.01327" />
      <path
         sodipodi:nodetypes="ccccscccsscc"
         inkscape:connector-curvature="0"
         id="path883"
         d="m 36.602815,131.82275 c -0.680067,-0.68005 -0.696203,-4.32362 -0.02165,-4.88345 0.697591,-0.57895 2.101754,-0.48121 2.585207,0.17996 0.653299,0.89343 0.546714,4.03887 -0.158472,4.67706 -0.729359,0.66006 -1.760147,0.6714 -2.40511,0.0264 z m 13.00166,-0.0814 c -0.647354,-0.7153 -0.71607,-3.78431 -0.103463,-4.62206 0.483453,-0.66116 1.887617,-0.75892 2.585207,-0.17997 0.674566,0.55984 0.658431,4.20341 -0.02165,4.88347 -0.666911,0.6669 -1.817322,0.62882 -2.460095,-0.0814 z"
         style="fill:#1f1a0f;stroke-width:0.31646863" />
    </g>
    <g
       id="g901"
       inkscape:export-xdpi="240.24001"
       inkscape:export-ydpi="240.24001">
      <rect
         y="122.01327"
         x="109.42049"
         height="27.648958"
         width="27.648958"
         id="rect887"
         style="fill:#ff7760;fill-opacity:1;stroke:none;stroke-width:2;stroke-miterlimit:4;stroke-dasharray:none;stroke-opacity:1" />
      <path
         style="fill:#1f1a0f;stroke-width:0.31646863"
         d="m 115.84552,131.82275 c -0.68006,-0.68005 -0.6962,-4.32362 -0.0216,-4.88345 0.69759,-0.57895 2.10176,-0.48121 2.58521,0.17996 0.6533,0.89343 0.54671,4.03887 -0.15847,4.67706 -0.72936,0.66006 -1.76015,0.6714 -2.40511,0.0264 z m 13.00166,-0.0814 c -0.64735,-0.7153 -0.71607,-3.78431 -0.10346,-4.62206 0.48345,-0.66116 1.88762,-0.75892 2.58521,-0.17997 0.67456,0.55984 0.65843,4.20341 -0.0217,4.88347 -0.66691,0.6669 -1.81733,0.62882 -2.4601,-0.0814 z"
         id="path889"
         inkscape:connector-curvature="0"
         sodipodi:nodetypes="ccccscccsscc" />
      <path
         sodipodi:nodetypes="ssssscsss"
         inkscape:connector-curvature="0"
         id="path893"
         d="m 125.92319,137.3998 c 4.14893,1.01989 9.24413,6.38365 7.7614,7.61421 -0.41485,0.3443 -3.55019,-3.12035 -5.32364,-4.02995 -1.96841,-1.00961 -2.47713,-1.40306 -5.28306,-1.40306 -2.83058,0 -2.97134,0.38485 -4.85776,1.4076 -1.54437,0.83729 -5.00474,4.36877 -5.40889,4.1155 -1.4667,-0.91909 3.41189,-6.11752 6.46611,-7.31777 0.72796,-0.28607 2.14746,-0.78689 3.52582,-0.84854 1.26188,-0.0565 2.48928,0.30695 3.12002,0.46201 z"
         style="fill:#1f1a0f;stroke-width:0.31646863" />
    </g>
  </g>
</svg>
